<?xml version="1.0" standalone="no"?><!DOCTYPE svg PUBLIC "-//W3C//DTD SVG 1.1//EN" "http://www.w3.org/Graphics/SVG/1.1/DTD/svg11.dtd"><svg t="1552987027232" class="icon" style="" viewBox="0 0 1024 1024" version="1.1" xmlns="http://www.w3.org/2000/svg" p-id="12694" xmlns:xlink="http://www.w3.org/1999/xlink" width="32" height="32"><defs><style type="text/css"></style></defs><path d="M519.876923 311.459716 519.876923 724.676923 504.123077 724.676923 504.123077 311.459716 504.123077 311.459716 309.504189 486.695352 298.962802 474.987961 509.695811 285.24311 512 287.80217 514.304189 285.24311 725.037198 474.987961 714.495811 486.695352 519.876923 311.459716ZM1024 512C1024 229.230208 794.769786 0 512 0 229.230214 0 0 229.230208 0 512 0 794.769786 229.230214 1024 512 1024 794.769786 1024 1024 794.769786 1024 512ZM15.753846 512C15.753846 237.930817 237.930811 15.753846 512 15.753846 786.069189 15.753846 1008.246154 237.930817 1008.246154 512 1008.246154 786.069183 786.069189 1008.246154 512 1008.246154 237.930811 1008.246154 15.753846 786.069183 15.753846 512Z" p-id="12695"></path></svg>